<svg width="60" height="54" viewBox="0 0 60 54" fill="none" xmlns="http://www.w3.org/2000/svg">
<g clip-path="url(#clip0_20_373)">
<path d="M40.9186 39.0563C41.643 39.0563 42.3376 38.7936 42.8498 38.3261C43.362 37.8586 43.6497 37.2245 43.6497 36.5633V28.7687C46.8907 27.2895 47.2912 27.2729 47.2912 26.5915C47.2912 23.1761 47.4551 22.8271 46.7905 22.528L43.6497 21.0903V13.2957C43.6932 12.6345 43.4471 11.9847 42.9657 11.4891C42.4842 10.9935 41.8068 10.6928 41.0825 10.6532C40.3582 10.6135 39.6462 10.8381 39.1033 11.2776C38.5604 11.717 38.231 12.3354 38.1875 12.9965C36.4487 15.3732 33.8632 19.4616 27.263 19.8937C27.2491 19.6821 27.147 19.4833 26.9778 19.3381C26.8085 19.1929 26.5849 19.1122 26.3526 19.1126H17.2489C17.1213 19.112 16.9949 19.1359 16.8781 19.1828C16.7613 19.2296 16.6565 19.2984 16.5707 19.3846C16.4848 19.4708 16.4198 19.5725 16.3798 19.6831C16.3398 19.7937 16.3257 19.9108 16.3385 20.0267C15.3103 20.2183 14.3863 20.7282 13.7227 21.4702C13.0591 22.2122 12.6968 23.1407 12.697 24.0985V25.7605C12.6968 26.7183 13.0591 27.6468 13.7227 28.3888C14.3863 29.1308 15.3103 29.6408 16.3385 29.8323C16.3257 29.9482 16.3398 30.0653 16.3798 30.1759C16.4198 30.2865 16.4848 30.3882 16.5707 30.4744C16.6565 30.5606 16.7613 30.6294 16.8781 30.6762C16.9949 30.7231 17.1213 30.747 17.2489 30.7464H18.3322L20.6173 40.4856C20.7471 41.02 21.0717 41.4984 21.538 41.8425C22.0044 42.1867 22.5848 42.3763 23.1845 42.3802H26.4619C27.0515 42.3802 27.6239 42.1989 28.0867 41.8654C28.5494 41.5319 28.8756 41.0658 29.0124 40.5423C29.1492 40.0187 29.0887 39.4684 28.8406 38.9802C28.5926 38.4919 28.1715 38.0942 27.6454 37.8513C27.2175 37.6436 27.4087 38.0757 25.6607 30.7464H26.3526C26.5849 30.7468 26.8085 30.6661 26.9778 30.5209C27.147 30.3757 27.2491 30.1769 27.263 29.9653C29.1974 30.078 31.0769 30.5981 32.7542 31.4847C34.4316 32.3714 35.8612 33.6005 36.9312 35.0758L38.1875 36.8625C38.268 37.4705 38.5909 38.0302 39.0946 38.4349C39.5984 38.8395 40.2476 39.0607 40.9186 39.0563ZM45.4705 23.7827V26.0763L43.6497 26.9073V22.9518L45.4705 23.7827ZM41.829 13.2957V36.5633C41.829 36.7837 41.7331 36.9951 41.5624 37.1509C41.3916 37.3067 41.1601 37.3943 40.9186 37.3943C40.6772 37.3943 40.4456 37.3067 40.2749 37.1509C40.1042 36.9951 40.0082 36.7837 40.0082 36.5633V13.2957C40.0082 13.0753 40.1042 12.8639 40.2749 12.7081C40.4456 12.5523 40.6772 12.4647 40.9186 12.4647C41.1601 12.4647 41.3916 12.5523 41.5624 12.7081C41.7331 12.8639 41.829 13.0753 41.829 13.2957ZM14.5177 25.7605V24.0985C14.5174 23.5828 14.6924 23.0796 15.0185 22.6584C15.3446 22.2372 15.8058 21.9187 16.3385 21.7468V28.1122C15.8058 27.9403 15.3446 27.6218 15.0185 27.2006C14.6924 26.7794 14.5174 26.2762 14.5177 25.7605ZM18.1592 20.7746H25.4422V29.0844H18.1592V20.7746ZM25.4422 37.6436C25.7791 39.3056 27.263 39.1144 27.263 39.987C27.2642 40.0833 27.2443 40.1789 27.2045 40.2681C27.1647 40.3573 27.1057 40.4384 27.0311 40.5065C26.9564 40.5747 26.8676 40.6285 26.7699 40.6648C26.6721 40.7012 26.5674 40.7193 26.4619 40.7182H23.1845C23.0024 40.7169 22.8261 40.6596 22.6841 40.5555C22.542 40.4515 22.4425 40.3068 22.4016 40.1449L20.1985 30.7464H23.84L25.4422 37.6436ZM27.263 28.2534V21.6056C29.4224 21.4833 31.5244 20.9212 33.4148 19.9607C35.3051 19.0001 36.9359 17.6655 38.1875 16.0546V33.8294C36.9383 32.2143 35.3086 30.8751 33.4182 29.9102C31.5277 28.9454 29.4245 28.3792 27.263 28.2534Z" fill="#3902A9"/>
<path d="M58.2157 0H1.77248C1.53104 0 1.29948 0.0875501 1.12875 0.24339C0.958021 0.39923 0.862106 0.610595 0.862106 0.830986L0.862106 52.3521C0.862106 52.5725 0.958021 52.7839 1.12875 52.9397C1.29948 53.0955 1.53104 53.1831 1.77248 53.1831H58.2157C58.4572 53.1831 58.6888 53.0955 58.8595 52.9397C59.0302 52.7839 59.1261 52.5725 59.1261 52.3521V0.830986C59.1261 0.610595 59.0302 0.39923 58.8595 0.24339C58.6888 0.0875501 58.4572 0 58.2157 0V0ZM2.68286 1.66197H57.3054V6.64789H2.68286V1.66197ZM2.68286 51.5211V8.30986H57.3054V51.5211H2.68286Z" fill="#3902A9"/>
<path d="M6.32436 3.32397C6.08291 3.32397 5.85136 3.41155 5.68063 3.56744C5.5099 3.72332 5.41399 3.93475 5.41399 4.15521C5.41399 4.37566 5.5099 4.58709 5.68063 4.74298C5.85136 4.89886 6.08291 4.98644 6.32436 4.98644C6.56581 4.98644 6.79737 4.89886 6.96809 4.74298C7.13882 4.58709 7.23474 4.37566 7.23474 4.15521C7.23474 3.93475 7.13882 3.72332 6.96809 3.56744C6.79737 3.41155 6.56581 3.32397 6.32436 3.32397Z" fill="#3902A9"/>
<path d="M10.8762 3.32397C10.6348 3.32397 10.4032 3.41155 10.2325 3.56744C10.0618 3.72332 9.96587 3.93475 9.96587 4.15521C9.96587 4.37566 10.0618 4.58709 10.2325 4.74298C10.4032 4.89886 10.6348 4.98644 10.8762 4.98644C11.1177 4.98644 11.3492 4.89886 11.52 4.74298C11.6907 4.58709 11.7866 4.37566 11.7866 4.15521C11.7866 3.93475 11.6907 3.72332 11.52 3.56744C11.3492 3.41155 11.1177 3.32397 10.8762 3.32397Z" fill="#3902A9"/>
<path d="M15.4281 3.32397C15.1867 3.32397 14.9551 3.41155 14.7844 3.56744C14.6136 3.72332 14.5177 3.93475 14.5177 4.15521C14.5177 4.37566 14.6136 4.58709 14.7844 4.74298C14.9551 4.89886 15.1867 4.98644 15.4281 4.98644C15.6696 4.98644 15.9011 4.89886 16.0718 4.74298C16.2426 4.58709 16.3385 4.37566 16.3385 4.15521C16.3385 3.93475 16.2426 3.72332 16.0718 3.56744C15.9011 3.41155 15.6696 3.32397 15.4281 3.32397Z" fill="#3902A9"/>
<path d="M10.4666 46.6764C7.65351 44.9646 7.44412 44.6571 6.82507 44.9729C6.20601 45.2887 6.32436 45.5961 6.32436 49.0281C6.32436 49.2485 6.42028 49.4599 6.591 49.6157C6.76173 49.7715 6.99329 49.8591 7.23474 49.8591C7.60799 49.8591 7.48054 49.8591 10.4666 48.0559C10.5905 47.9798 10.692 47.8772 10.7622 47.7569C10.8324 47.6366 10.8692 47.5024 10.8692 47.3661C10.8692 47.2298 10.8324 47.0957 10.7622 46.9754C10.692 46.8551 10.5905 46.7524 10.4666 46.6764ZM8.14511 47.4742C8.14511 47.1999 8.09049 47.2249 8.32719 47.3661L8.14511 47.4742Z" fill="#3902A9"/>
<path d="M52.7535 46.5352H38.1875C37.9461 46.5352 37.7145 46.6227 37.5438 46.7786C37.373 46.9345 37.2771 47.1459 37.2771 47.3664C37.2771 47.5868 37.373 47.7983 37.5438 47.9542C37.7145 48.11 37.9461 48.1976 38.1875 48.1976H52.7535C52.995 48.1976 53.2265 48.11 53.3972 47.9542C53.568 47.7983 53.6639 47.5868 53.6639 47.3664C53.6639 47.1459 53.568 46.9345 53.3972 46.7786C53.2265 46.6227 52.995 46.5352 52.7535 46.5352Z" fill="#3902A9"/>
<path d="M33.6356 46.5351H13.6074C13.3659 46.5351 13.1344 46.6226 12.9636 46.7785C12.7929 46.9343 12.697 47.1457 12.697 47.3661C12.697 47.5865 12.7929 47.7978 12.9636 47.9537C13.1344 48.1095 13.3659 48.1971 13.6074 48.1971H33.6356C33.6356 48.4175 33.7315 48.6288 33.9023 48.7847C34.073 48.9405 34.3046 49.028 34.546 49.028C34.7874 49.028 35.019 48.9405 35.1897 48.7847C35.3605 48.6288 35.4564 48.4175 35.4564 48.1971V46.5351C35.4564 46.3147 35.3605 46.1033 35.1897 45.9475C35.019 45.7917 34.7874 45.7041 34.546 45.7041C34.3046 45.7041 34.073 45.7917 33.9023 45.9475C33.7315 46.1033 33.6356 46.3147 33.6356 46.5351Z" fill="#3902A9"/>
</g>
<defs>
<clipPath id="clip0_20_373">
<rect width="58.264" height="53.1831" fill="white" transform="translate(0.862106)"/>
</clipPath>
</defs>
</svg>
