<svg width="106" height="23" viewBox="0 0 106 23" fill="none" xmlns="http://www.w3.org/2000/svg">
<path d="M13.2795 7.69054C12.8709 6.79534 12.3091 6.11377 11.594 5.64583C10.879 5.17789 10.0447 4.94392 9.09135 4.94392C8.0358 4.94392 7.09942 5.22875 6.28222 5.79842C5.46502 6.36809 4.82659 7.1819 4.36691 8.23986C3.90724 9.29782 3.6774 10.5185 3.6774 11.902C3.6774 13.3262 3.90724 14.5673 4.36691 15.6252C4.84361 16.6832 5.49907 17.497 6.3333 18.0667C7.16752 18.6363 8.13795 18.9212 9.24457 18.9212C10.6066 18.9212 11.7217 18.4939 12.59 17.6394C13.4583 16.7646 14.0286 15.554 14.301 14.0078H8.172V10.7423H17.8252V14.4655C17.5868 15.9507 17.0761 17.3241 16.2929 18.5855C15.5098 19.8469 14.4968 20.8641 13.254 21.6373C12.0282 22.39 10.6491 22.7664 9.11689 22.7664C7.39736 22.7664 5.83957 22.3087 4.44352 21.3931C3.0645 20.4572 1.9749 19.1653 1.17472 17.5173C0.391575 15.8694 0 13.9976 0 11.902C0 9.80645 0.391575 7.93468 1.17472 6.28671C1.9749 4.61839 3.0645 3.32646 4.44352 2.41092C5.83957 1.47504 7.38885 1.00709 9.09135 1.00709C11.1003 1.00709 12.8454 1.59711 14.3265 2.77714C15.8077 3.93682 16.8292 5.57462 17.391 7.69054H13.2795Z" fill="#FFB900"/>
<path d="M28.7444 22.797C27.076 22.797 25.5437 22.329 24.1477 21.3931C22.7516 20.4572 21.645 19.1653 20.8278 17.5173C20.0106 15.849 19.602 13.9671 19.602 11.8715C19.602 9.79628 20.0106 7.93468 20.8278 6.28671C21.645 4.61839 22.7516 3.31629 24.1477 2.3804C25.5437 1.44452 27.076 0.976577 28.7444 0.976577C30.4299 0.976577 31.9622 1.44452 33.3412 2.3804C34.7372 3.31629 35.8354 4.61839 36.6355 6.28671C37.4527 7.93468 37.8613 9.79628 37.8613 11.8715C37.8613 13.9671 37.4527 15.849 36.6355 17.5173C35.8354 19.1653 34.7372 20.4572 33.3412 21.3931C31.9451 22.329 30.4129 22.797 28.7444 22.797ZM28.7444 18.9822C29.817 18.9822 30.7619 18.6974 31.5791 18.1277C32.3963 17.5377 33.0347 16.7035 33.4944 15.6252C33.9541 14.5469 34.1839 13.2957 34.1839 11.8715C34.1839 10.4473 33.9541 9.20627 33.4944 8.14831C33.0347 7.07001 32.3963 6.24602 31.5791 5.67635C30.7619 5.10668 29.817 4.82185 28.7444 4.82185C27.6719 4.82185 26.7185 5.10668 25.8842 5.67635C25.067 6.24602 24.4286 7.07001 23.9689 8.14831C23.5093 9.20627 23.2794 10.4473 23.2794 11.8715C23.2794 13.2957 23.5093 14.5469 23.9689 15.6252C24.4286 16.7035 25.067 17.5377 25.8842 18.1277C26.7185 18.6974 27.6719 18.9822 28.7444 18.9822Z" fill="#FFB900"/>
<path d="M58.7366 1.28176V4.73029H53.9867V22.5833H50.4114V4.73029H45.6614V1.28176H58.7366Z" fill="#FFB900"/>
<path d="M74.4971 13.7636C74.4971 14.374 74.463 14.9233 74.3949 15.4116H64.0522C64.1373 16.6323 64.4949 17.5885 65.1248 18.2803C65.7547 18.972 66.5294 19.3179 67.4487 19.3179C68.7767 19.3179 69.7215 18.6363 70.2834 17.2732H74.1395C73.7309 18.9008 72.9478 20.2436 71.7901 21.3016C70.6324 22.3392 69.2108 22.858 67.5253 22.858C66.1633 22.858 64.9375 22.5019 63.8479 21.7899C62.7753 21.0574 61.9326 20.03 61.3197 18.7075C60.7238 17.3851 60.4259 15.8592 60.4259 14.1298C60.4259 12.3801 60.7238 10.8441 61.3197 9.52162C61.9156 8.19917 62.7498 7.1819 63.8224 6.46982C64.895 5.75773 66.1293 5.40169 67.5253 5.40169C68.8703 5.40169 70.0706 5.74756 71.1261 6.4393C72.1987 7.13104 73.0244 8.11779 73.6032 9.39955C74.1991 10.661 74.4971 12.1157 74.4971 13.7636ZM70.7941 12.5429C70.7771 11.4443 70.4451 10.5694 69.7982 9.91835C69.1512 9.24696 68.3596 8.91126 67.4232 8.91126C66.5379 8.91126 65.7888 9.23678 65.1759 9.88784C64.58 10.5185 64.214 11.4036 64.0778 12.5429H70.7941Z" fill="#FFB900"/>
<path d="M76.1873 14.1298C76.1873 12.3801 76.4853 10.8542 77.0811 9.55214C77.677 8.22969 78.5027 7.21242 79.5583 6.50034C80.6138 5.7679 81.8226 5.40169 83.1846 5.40169C84.9382 5.40169 86.3853 5.93067 87.526 6.98862C88.6837 8.02624 89.4583 9.4911 89.8499 11.3832H85.9937C85.7894 10.6508 85.4404 10.0811 84.9467 9.67421C84.47 9.24696 83.8741 9.03333 83.1591 9.03333C82.1376 9.03333 81.3289 9.48093 80.733 10.3761C80.1371 11.251 79.8392 12.5022 79.8392 14.1298C79.8392 15.7371 80.1371 16.9884 80.733 17.8836C81.3289 18.7584 82.1376 19.1958 83.1591 19.1958C84.6062 19.1958 85.5511 18.4227 85.9937 16.8765H89.8499C89.4583 18.7075 88.6837 20.1622 87.526 21.2405C86.3683 22.3188 84.9211 22.858 83.1846 22.858C81.8226 22.858 80.6138 22.5019 79.5583 21.7899C78.5027 21.0574 77.677 20.0402 77.0811 18.7381C76.4853 17.4156 76.1873 15.8795 76.1873 14.1298Z" fill="#FFB900"/>
<path d="M100.437 5.43221C101.509 5.43221 102.463 5.71704 103.297 6.28671C104.131 6.83603 104.778 7.66002 105.238 8.75867C105.715 9.83697 105.953 11.1391 105.953 12.665V22.5833H102.378V13.2448C102.378 11.902 102.097 10.8746 101.535 10.1625C100.973 9.43007 100.207 9.06385 99.2365 9.06385C98.2491 9.06385 97.4659 9.43007 96.887 10.1625C96.3252 10.8746 96.0443 11.902 96.0443 13.2448V22.5833H92.4691V0H96.0443V7.78209C96.504 7.04966 97.1169 6.47999 97.883 6.07308C98.6491 5.64583 99.5004 5.43221 100.437 5.43221Z" fill="#FFB900"/>
</svg>
