<svg width="59" height="54" viewBox="0 0 59 54" fill="none" xmlns="http://www.w3.org/2000/svg">
<g clip-path="url(#clip0_20_312)">
<path d="M55.8082 44.8732H54.8978V14.9577C54.8978 14.0762 54.5141 13.2307 53.8312 12.6074C53.1483 11.984 52.2221 11.6338 51.2563 11.6338H46.7044V0.830986C46.7044 0.610595 46.6085 0.39923 46.4378 0.24339C46.267 0.0875501 46.0355 0 45.794 0L13.0205 0C12.7791 0 12.5475 0.0875501 12.3768 0.24339C12.2061 0.39923 12.1101 0.610595 12.1101 0.830986V11.6338H7.55827C6.59248 11.6338 5.66625 11.984 4.98334 12.6074C4.30043 13.2307 3.91677 14.0762 3.91677 14.9577V44.8732H3.00639C2.28205 44.8732 1.58738 45.1359 1.0752 45.6034C0.563011 46.0709 0.275269 46.705 0.275269 47.3662L0.275269 49.0282C0.275269 50.1301 0.75484 51.1869 1.60848 51.9661C2.46212 52.7453 3.61991 53.1831 4.82714 53.1831H53.9874C55.1946 53.1831 56.3524 52.7453 57.2061 51.9661C58.0597 51.1869 58.5393 50.1301 58.5393 49.0282V47.3662C58.5393 46.705 58.2515 46.0709 57.7394 45.6034C57.2272 45.1359 56.5325 44.8732 55.8082 44.8732ZM9.37902 41.5493V16.6197H12.1101V41.5493H9.37902ZM13.9309 6.64789H44.8837V41.5493H13.9309V6.64789ZM46.7044 16.6197H49.4355V41.5493H46.7044V16.6197ZM13.9309 1.66197H44.8837V4.98592H13.9309V1.66197ZM5.73752 14.9577C5.73752 14.517 5.92935 14.0942 6.27081 13.7826C6.61226 13.4709 7.07538 13.2958 7.55827 13.2958H12.1101V14.9577H8.46865C8.2272 14.9577 7.99564 15.0453 7.82491 15.2011C7.65418 15.357 7.55827 15.5683 7.55827 15.7887V42.3803C7.55827 42.6007 7.65418 42.812 7.82491 42.9679C7.99564 43.1237 8.2272 43.2113 8.46865 43.2113H50.3459C50.5874 43.2113 50.8189 43.1237 50.9896 42.9679C51.1604 42.812 51.2563 42.6007 51.2563 42.3803V15.7887C51.2563 15.5683 51.1604 15.357 50.9896 15.2011C50.8189 15.0453 50.5874 14.9577 50.3459 14.9577H46.7044V13.2958H51.2563C51.7392 13.2958 52.2023 13.4709 52.5437 13.7826C52.8852 14.0942 53.077 14.517 53.077 14.9577V44.8732H5.73752V14.9577ZM36.8086 46.5352L36.1987 47.3662H22.6159L22.0059 46.5352H36.8086ZM56.7185 49.0282C56.7185 49.6893 56.4308 50.3234 55.9186 50.791C55.4064 51.2585 54.7117 51.5211 53.9874 51.5211H4.82714C4.10281 51.5211 3.40813 51.2585 2.89595 50.791C2.38376 50.3234 2.09602 49.6893 2.09602 49.0282V47.3662C2.09602 47.1458 2.19193 46.9344 2.36266 46.7786C2.53339 46.6228 2.76495 46.5352 3.00639 46.5352H19.8119L21.3687 48.6542C21.751 49.1861 20.9954 49.0282 36.6903 49.0282C37.3184 49.0282 37.364 48.7789 39.0026 46.5352H55.8082C56.0496 46.5352 56.2812 46.6228 56.4519 46.7786C56.6226 46.9344 56.7185 47.1458 56.7185 47.3662V49.0282Z" fill="#3902A9"/>
<path d="M16.662 2.49292C16.4206 2.49292 16.189 2.5805 16.0183 2.73638C15.8476 2.89227 15.7516 3.1037 15.7516 3.32415C15.7516 3.54461 15.8476 3.75604 16.0183 3.91192C16.189 4.06781 16.4206 4.15539 16.662 4.15539C16.9035 4.15539 17.135 4.06781 17.3058 3.91192C17.4765 3.75604 17.5724 3.54461 17.5724 3.32415C17.5724 3.1037 17.4765 2.89227 17.3058 2.73638C17.135 2.5805 16.9035 2.49292 16.662 2.49292Z" fill="#3902A9"/>
<path d="M20.3035 2.49292C20.0621 2.49292 19.8305 2.5805 19.6598 2.73638C19.489 2.89227 19.3931 3.1037 19.3931 3.32415C19.3931 3.54461 19.489 3.75604 19.6598 3.91192C19.8305 4.06781 20.0621 4.15539 20.3035 4.15539C20.5449 4.15539 20.7765 4.06781 20.9472 3.91192C21.118 3.75604 21.2139 3.54461 21.2139 3.32415C21.2139 3.1037 21.118 2.89227 20.9472 2.73638C20.7765 2.5805 20.5449 2.49292 20.3035 2.49292Z" fill="#3902A9"/>
<path d="M23.945 2.49292C23.7036 2.49292 23.472 2.5805 23.3013 2.73638C23.1306 2.89227 23.0347 3.1037 23.0347 3.32415C23.0347 3.54461 23.1306 3.75604 23.3013 3.91192C23.472 4.06781 23.7036 4.15539 23.945 4.15539C24.1865 4.15539 24.418 4.06781 24.5888 3.91192C24.7595 3.75604 24.8554 3.54461 24.8554 3.32415C24.8554 3.1037 24.7595 2.89227 24.5888 2.73638C24.418 2.5805 24.1865 2.49292 23.945 2.49292Z" fill="#3902A9"/>
<path d="M41.2422 8.30981H17.5724C17.331 8.30981 17.0994 8.39736 16.9287 8.5532C16.758 8.70904 16.662 8.92041 16.662 9.1408V17.4507C16.662 17.6711 16.758 17.8824 16.9287 18.0383C17.0994 18.1941 17.331 18.2816 17.5724 18.2816H41.2422C41.4836 18.2816 41.7152 18.1941 41.8859 18.0383C42.0566 17.8824 42.1526 17.6711 42.1526 17.4507V9.1408C42.1526 8.92041 42.0566 8.70904 41.8859 8.5532C41.7152 8.39736 41.4836 8.30981 41.2422 8.30981ZM40.3318 16.6197H18.4828V9.97179H40.3318V16.6197Z" fill="#3902A9"/>
<path d="M29.4072 26.5915C30.1275 26.5915 30.8315 26.3965 31.4304 26.0313C32.0292 25.6661 32.4959 25.1469 32.7716 24.5396C33.0472 23.9322 33.1193 23.2639 32.9788 22.6191C32.8383 21.9743 32.4915 21.382 31.9822 20.9172C31.4729 20.4523 30.8241 20.1357 30.1177 20.0075C29.4113 19.8792 28.6791 19.945 28.0137 20.1966C27.3483 20.4482 26.7796 20.8742 26.3795 21.4209C25.9793 21.9675 25.7657 22.6101 25.7657 23.2675C25.7657 24.1491 26.1494 24.9946 26.8323 25.6179C27.5152 26.2413 28.4415 26.5915 29.4072 26.5915ZM29.4072 21.6056C29.7674 21.6056 30.1194 21.7031 30.4188 21.8857C30.7182 22.0683 30.9516 22.3279 31.0894 22.6315C31.2272 22.9352 31.2633 23.2694 31.193 23.5918C31.1228 23.9142 30.9494 24.2103 30.6947 24.4427C30.4401 24.6752 30.1157 24.8335 29.7625 24.8976C29.4093 24.9617 29.0432 24.9288 28.7105 24.803C28.3778 24.6772 28.0934 24.4642 27.8933 24.1909C27.6933 23.9176 27.5865 23.5963 27.5865 23.2675C27.5865 22.8268 27.7783 22.404 28.1198 22.0924C28.4612 21.7807 28.9244 21.6056 29.4072 21.6056Z" fill="#3902A9"/>
<path d="M38.511 19.9436C37.7908 19.9436 37.0867 20.1385 36.4879 20.5038C35.8891 20.869 35.4223 21.3882 35.1467 21.9955C34.8711 22.6029 34.799 23.2712 34.9395 23.916C35.08 24.5608 35.4268 25.1531 35.9361 25.6179C36.4454 26.0828 37.0942 26.3994 37.8006 26.5276C38.507 26.6559 39.2392 26.5901 39.9046 26.3385C40.57 26.0869 41.1387 25.6609 41.5388 25.1142C41.9389 24.5676 42.1525 23.925 42.1525 23.2675C42.1525 22.386 41.7689 21.5405 41.0859 20.9172C40.403 20.2938 39.4768 19.9436 38.511 19.9436ZM38.511 24.9295C38.1509 24.9295 37.7989 24.832 37.4995 24.6494C37.2 24.4668 36.9667 24.2072 36.8289 23.9036C36.691 23.5999 36.655 23.2657 36.7252 22.9433C36.7955 22.6209 36.9689 22.3248 37.2235 22.0924C37.4782 21.8599 37.8026 21.7016 38.1558 21.6375C38.509 21.5734 38.8751 21.6063 39.2078 21.7321C39.5405 21.8579 39.8248 22.0709 40.0249 22.3442C40.225 22.6175 40.3318 22.9388 40.3318 23.2675C40.3318 23.7083 40.1399 24.1311 39.7985 24.4427C39.457 24.7544 38.9939 24.9295 38.511 24.9295Z" fill="#3902A9"/>
<path d="M20.3035 26.5915C21.0238 26.5915 21.7278 26.3965 22.3267 26.0313C22.9255 25.6661 23.3922 25.1469 23.6679 24.5396C23.9435 23.9322 24.0156 23.2639 23.8751 22.6191C23.7346 21.9743 23.3878 21.382 22.8785 20.9172C22.3692 20.4523 21.7204 20.1357 21.014 20.0075C20.3076 19.8792 19.5754 19.945 18.91 20.1966C18.2446 20.4482 17.6759 20.8742 17.2758 21.4209C16.8756 21.9675 16.662 22.6101 16.662 23.2675C16.662 24.1491 17.0457 24.9946 17.7286 25.6179C18.4115 26.2413 19.3378 26.5915 20.3035 26.5915ZM20.3035 21.6056C20.6637 21.6056 21.0157 21.7031 21.3151 21.8857C21.6145 22.0683 21.8479 22.3279 21.9857 22.6315C22.1235 22.9352 22.1596 23.2694 22.0893 23.5918C22.0191 23.9142 21.8457 24.2103 21.591 24.4427C21.3364 24.6752 21.012 24.8335 20.6588 24.8976C20.3056 24.9617 19.9395 24.9288 19.6068 24.803C19.2741 24.6772 18.9897 24.4642 18.7897 24.1909C18.5896 23.9176 18.4828 23.5963 18.4828 23.2675C18.4828 22.8268 18.6746 22.404 19.0161 22.0924C19.3575 21.7807 19.8207 21.6056 20.3035 21.6056Z" fill="#3902A9"/>
<path d="M17.5724 29.9159H23.0347C23.2761 29.9159 23.5077 29.8283 23.6784 29.6724C23.8491 29.5165 23.9451 29.3051 23.9451 29.0847C23.9451 28.8642 23.8491 28.6528 23.6784 28.4969C23.5077 28.341 23.2761 28.2534 23.0347 28.2534H17.5724C17.331 28.2534 17.0994 28.341 16.9287 28.4969C16.758 28.6528 16.662 28.8642 16.662 29.0847C16.662 29.3051 16.758 29.5165 16.9287 29.6724C17.0994 29.8283 17.331 29.9159 17.5724 29.9159Z" fill="#3902A9"/>
<path d="M17.5724 33.2399H23.0347C23.2761 33.2399 23.5077 33.1523 23.6784 32.9964C23.8491 32.8405 23.9451 32.6291 23.9451 32.4086C23.9451 32.1882 23.8491 31.9767 23.6784 31.8209C23.5077 31.665 23.2761 31.5774 23.0347 31.5774H17.5724C17.331 31.5774 17.0994 31.665 16.9287 31.8209C16.758 31.9767 16.662 32.1882 16.662 32.4086C16.662 32.6291 16.758 32.8405 16.9287 32.9964C17.0994 33.1523 17.331 33.2399 17.5724 33.2399Z" fill="#3902A9"/>
<path d="M26.6761 29.9159H32.1384C32.3798 29.9159 32.6114 29.8283 32.7821 29.6724C32.9528 29.5165 33.0487 29.3051 33.0487 29.0847C33.0487 28.8642 32.9528 28.6528 32.7821 28.4969C32.6114 28.341 32.3798 28.2534 32.1384 28.2534H26.6761C26.4347 28.2534 26.2031 28.341 26.0324 28.4969C25.8617 28.6528 25.7657 28.8642 25.7657 29.0847C25.7657 29.3051 25.8617 29.5165 26.0324 29.6724C26.2031 29.8283 26.4347 29.9159 26.6761 29.9159Z" fill="#3902A9"/>
<path d="M26.6761 33.2399H32.1384C32.3798 33.2399 32.6114 33.1523 32.7821 32.9964C32.9528 32.8405 33.0487 32.6291 33.0487 32.4086C33.0487 32.1882 32.9528 31.9767 32.7821 31.8209C32.6114 31.665 32.3798 31.5774 32.1384 31.5774H26.6761C26.4347 31.5774 26.2031 31.665 26.0324 31.8209C25.8617 31.9767 25.7657 32.1882 25.7657 32.4086C25.7657 32.6291 25.8617 32.8405 26.0324 32.9964C26.2031 33.1523 26.4347 33.2399 26.6761 33.2399Z" fill="#3902A9"/>
<path d="M41.2421 28.2534H35.7799C35.5384 28.2534 35.3069 28.341 35.1361 28.4969C34.9654 28.6528 34.8695 28.8642 34.8695 29.0847C34.8695 29.3051 34.9654 29.5165 35.1361 29.6724C35.3069 29.8283 35.5384 29.9159 35.7799 29.9159H41.2421C41.4836 29.9159 41.7151 29.8283 41.8859 29.6724C42.0566 29.5165 42.1525 29.3051 42.1525 29.0847C42.1525 28.8642 42.0566 28.6528 41.8859 28.4969C41.7151 28.341 41.4836 28.2534 41.2421 28.2534Z" fill="#3902A9"/>
<path d="M41.2421 31.5774H35.7799C35.5384 31.5774 35.3069 31.665 35.1361 31.8209C34.9654 31.9767 34.8695 32.1882 34.8695 32.4086C34.8695 32.6291 34.9654 32.8405 35.1361 32.9964C35.3069 33.1523 35.5384 33.2399 35.7799 33.2399H41.2421C41.4836 33.2399 41.7151 33.1523 41.8859 32.9964C42.0566 32.8405 42.1525 32.6291 42.1525 32.4086C42.1525 32.1882 42.0566 31.9767 41.8859 31.8209C41.7151 31.665 41.4836 31.5774 41.2421 31.5774Z" fill="#3902A9"/>
<path d="M41.2422 34.9014H17.5724C17.331 34.9014 17.0994 34.9889 16.9287 35.1448C16.758 35.3006 16.662 35.512 16.662 35.7324V39.0563C16.662 39.2767 16.758 39.4881 16.9287 39.6439C17.0994 39.7997 17.331 39.8873 17.5724 39.8873H41.2422C41.4836 39.8873 41.7152 39.7997 41.8859 39.6439C42.0566 39.4881 42.1526 39.2767 42.1526 39.0563V35.7324C42.1526 35.512 42.0566 35.3006 41.8859 35.1448C41.7152 34.9889 41.4836 34.9014 41.2422 34.9014ZM40.3318 38.2253H18.4828V36.5633H40.3318V38.2253Z" fill="#3902A9"/>
</g>
<defs>
<clipPath id="clip0_20_312">
<rect width="58.264" height="53.1831" fill="white" transform="translate(0.275269)"/>
</clipPath>
</defs>
</svg>
