<svg width="59" height="54" viewBox="0 0 59 54" fill="none" xmlns="http://www.w3.org/2000/svg">
<g clip-path="url(#clip0_20_329)">
<path d="M57.5532 3.32394H32.0626V0.830986C32.0626 0.610595 31.9667 0.39923 31.796 0.24339C31.6253 0.0875501 31.3937 0 31.1523 0C30.9108 0 30.6793 0.0875501 30.5085 0.24339C30.3378 0.39923 30.2419 0.610595 30.2419 0.830986V3.32394H1.10988C0.868437 3.32394 0.63688 3.41149 0.466151 3.56733C0.295423 3.72317 0.199509 3.93454 0.199509 4.15493L0.199509 49.0282C0.199509 49.2486 0.295423 49.4599 0.466151 49.6158C0.63688 49.7716 0.868437 49.8591 1.10988 49.8591H30.2419V52.3521C30.2419 52.5725 30.3378 52.7839 30.5085 52.9397C30.6793 53.0955 30.9108 53.1831 31.1523 53.1831C31.3937 53.1831 31.6253 53.0955 31.796 52.9397C31.9667 52.7839 32.0626 52.5725 32.0626 52.3521V49.8591H57.5532C57.7946 49.8591 58.0262 49.7716 58.1969 49.6158C58.3676 49.4599 58.4635 49.2486 58.4635 49.0282V4.15493C58.4635 3.93454 58.3676 3.72317 58.1969 3.56733C58.0262 3.41149 57.7946 3.32394 57.5532 3.32394ZM56.6428 4.98592V9.97183H32.0626V4.98592H56.6428ZM2.02026 4.98592H30.2419V9.97183H2.02026V4.98592ZM2.02026 48.1972V11.6338H30.2419V48.1972H2.02026ZM32.0626 48.1972V11.6338H56.6428V48.1972H32.0626Z" fill="#3902A9"/>
<path d="M5.66176 6.64795C5.42032 6.64795 5.18876 6.73553 5.01803 6.89141C4.8473 7.0473 4.75139 7.25873 4.75139 7.47918C4.75139 7.69964 4.8473 7.91107 5.01803 8.06695C5.18876 8.22284 5.42032 8.31042 5.66176 8.31042C5.90321 8.31042 6.13477 8.22284 6.3055 8.06695C6.47622 7.91107 6.57214 7.69964 6.57214 7.47918C6.57214 7.25873 6.47622 7.0473 6.3055 6.89141C6.13477 6.73553 5.90321 6.64795 5.66176 6.64795Z" fill="#3902A9"/>
<path d="M10.2136 6.64795C9.97219 6.64795 9.74063 6.73553 9.5699 6.89141C9.39918 7.0473 9.30326 7.25873 9.30326 7.47918C9.30326 7.69964 9.39918 7.91107 9.5699 8.06695C9.74063 8.22284 9.97219 8.31042 10.2136 8.31042C10.4551 8.31042 10.6866 8.22284 10.8574 8.06695C11.0281 7.91107 11.124 7.69964 11.124 7.47918C11.124 7.25873 11.0281 7.0473 10.8574 6.89141C10.6866 6.73553 10.4551 6.64795 10.2136 6.64795Z" fill="#3902A9"/>
<path d="M14.7655 6.64795C14.5241 6.64795 14.2925 6.73553 14.1218 6.89141C13.9511 7.0473 13.8551 7.25873 13.8551 7.47918C13.8551 7.69964 13.9511 7.91107 14.1218 8.06695C14.2925 8.22284 14.5241 8.31042 14.7655 8.31042C15.007 8.31042 15.2385 8.22284 15.4092 8.06695C15.58 7.91107 15.6759 7.69964 15.6759 7.47918C15.6759 7.25873 15.58 7.0473 15.4092 6.89141C15.2385 6.73553 15.007 6.64795 14.7655 6.64795Z" fill="#3902A9"/>
<path d="M26.6004 14.1267H5.66176C5.42032 14.1267 5.18876 14.2143 5.01803 14.3701C4.8473 14.5259 4.75139 14.7373 4.75139 14.9577V22.4366C4.75139 22.657 4.8473 22.8683 5.01803 23.0242C5.18876 23.18 5.42032 23.2676 5.66176 23.2676H26.6004C26.8418 23.2676 27.0734 23.18 27.2441 23.0242C27.4149 22.8683 27.5108 22.657 27.5108 22.4366V14.9577C27.5108 14.7373 27.4149 14.5259 27.2441 14.3701C27.0734 14.2143 26.8418 14.1267 26.6004 14.1267ZM25.69 21.6056H6.57214V15.7887H25.69V21.6056Z" fill="#3902A9"/>
<path d="M24.3245 25.7605C23.6943 25.7605 23.0782 25.9311 22.5542 26.2507C22.0302 26.5702 21.6218 27.0245 21.3807 27.5559C21.1395 28.0874 21.0764 28.6722 21.1994 29.2364C21.3223 29.8005 21.6258 30.3188 22.0714 30.7255C22.517 31.1323 23.0847 31.4093 23.7028 31.5215C24.3209 31.6337 24.9616 31.5761 25.5438 31.356C26.126 31.1359 26.6237 30.7631 26.9738 30.2848C27.3239 29.8065 27.5108 29.2442 27.5108 28.6689C27.5108 27.8976 27.1751 27.1578 26.5775 26.6124C25.98 26.0669 25.1695 25.7605 24.3245 25.7605ZM24.3245 29.9154C23.9623 29.9154 23.6149 29.7841 23.3589 29.5503C23.1028 29.3166 22.9589 28.9995 22.9589 28.6689C22.9589 28.3384 23.1028 28.0213 23.3589 27.7876C23.6149 27.5538 23.9623 27.4225 24.3245 27.4225C24.6866 27.4225 25.034 27.5538 25.2901 27.7876C25.5461 28.0213 25.69 28.3384 25.69 28.6689C25.69 28.9995 25.5461 29.3166 25.2901 29.5503C25.034 29.7841 24.6866 29.9154 24.3245 29.9154Z" fill="#3902A9"/>
<path d="M16.1311 31.5774C16.7613 31.5774 17.3773 31.4068 17.9013 31.0872C18.4253 30.7677 18.8337 30.3134 19.0748 29.782C19.316 29.2505 19.3791 28.6657 19.2562 28.1015C19.1332 27.5374 18.8298 27.0191 18.3841 26.6124C17.9385 26.2056 17.3708 25.9286 16.7527 25.8164C16.1346 25.7042 15.4939 25.7618 14.9117 25.9819C14.3295 26.202 13.8319 26.5748 13.4818 27.0531C13.1316 27.5314 12.9448 28.0937 12.9448 28.6689C12.9448 29.4403 13.2805 30.1801 13.878 30.7255C14.4756 31.271 15.286 31.5774 16.1311 31.5774ZM16.1311 27.4225C16.4932 27.4225 16.8406 27.5538 17.0967 27.7876C17.3528 28.0213 17.4966 28.3384 17.4966 28.6689C17.4966 28.9995 17.3528 29.3166 17.0967 29.5503C16.8406 29.7841 16.4932 29.9154 16.1311 29.9154C15.7689 29.9154 15.4216 29.7841 15.1655 29.5503C14.9094 29.3166 14.7655 28.9995 14.7655 28.6689C14.7655 28.3384 14.9094 28.0213 15.1655 27.7876C15.4216 27.5538 15.7689 27.4225 16.1311 27.4225Z" fill="#3902A9"/>
<path d="M7.9377 31.5774C8.5679 31.5774 9.18394 31.4068 9.70792 31.0872C10.2319 30.7677 10.6403 30.3134 10.8815 29.782C11.1226 29.2505 11.1857 28.6657 11.0628 28.1015C10.9398 27.5374 10.6364 27.0191 10.1908 26.6124C9.74515 26.2056 9.17741 25.9286 8.55932 25.8164C7.94124 25.7042 7.30058 25.7618 6.71835 25.9819C6.13613 26.202 5.6385 26.5748 5.28838 27.0531C4.93826 27.5314 4.75139 28.0937 4.75139 28.6689C4.75139 29.4403 5.08709 30.1801 5.68464 30.7255C6.28219 31.271 7.09264 31.5774 7.9377 31.5774ZM7.9377 27.4225C8.29987 27.4225 8.64721 27.5538 8.9033 27.7876C9.15939 28.0213 9.30326 28.3384 9.30326 28.6689C9.30326 28.9995 9.15939 29.3166 8.9033 29.5503C8.64721 29.7841 8.29987 29.9154 7.9377 29.9154C7.57553 29.9154 7.2282 29.7841 6.9721 29.5503C6.71601 29.3166 6.57214 28.9995 6.57214 28.6689C6.57214 28.3384 6.71601 28.0213 6.9721 27.7876C7.2282 27.5538 7.57553 27.4225 7.9377 27.4225Z" fill="#3902A9"/>
<path d="M26.6004 33.2395H22.0485C21.8071 33.2395 21.5755 33.3271 21.4048 33.483C21.2341 33.6389 21.1381 33.8503 21.1381 34.0707C21.1381 34.2912 21.2341 34.5026 21.4048 34.6585C21.5755 34.8144 21.8071 34.902 22.0485 34.902H26.6004C26.8418 34.902 27.0734 34.8144 27.2441 34.6585C27.4149 34.5026 27.5108 34.2912 27.5108 34.0707C27.5108 33.8503 27.4149 33.6389 27.2441 33.483C27.0734 33.3271 26.8418 33.2395 26.6004 33.2395Z" fill="#3902A9"/>
<path d="M26.6004 36.5635H22.0485C21.8071 36.5635 21.5755 36.6511 21.4048 36.8069C21.2341 36.9628 21.1381 37.1743 21.1381 37.3947C21.1381 37.6152 21.2341 37.8266 21.4048 37.9825C21.5755 38.1384 21.8071 38.2259 22.0485 38.2259H26.6004C26.8418 38.2259 27.0734 38.1384 27.2441 37.9825C27.4149 37.8266 27.5108 37.6152 27.5108 37.3947C27.5108 37.1743 27.4149 36.9628 27.2441 36.8069C27.0734 36.6511 26.8418 36.5635 26.6004 36.5635Z" fill="#3902A9"/>
<path d="M13.8551 34.902H18.407C18.6485 34.902 18.88 34.8144 19.0507 34.6585C19.2215 34.5026 19.3174 34.2912 19.3174 34.0707C19.3174 33.8503 19.2215 33.6389 19.0507 33.483C18.88 33.3271 18.6485 33.2395 18.407 33.2395H13.8551C13.6137 33.2395 13.3821 33.3271 13.2114 33.483C13.0407 33.6389 12.9448 33.8503 12.9448 34.0707C12.9448 34.2912 13.0407 34.5026 13.2114 34.6585C13.3821 34.8144 13.6137 34.902 13.8551 34.902Z" fill="#3902A9"/>
<path d="M13.8551 38.2259H18.407C18.6485 38.2259 18.88 38.1384 19.0507 37.9825C19.2215 37.8266 19.3174 37.6152 19.3174 37.3947C19.3174 37.1743 19.2215 36.9628 19.0507 36.8069C18.88 36.6511 18.6485 36.5635 18.407 36.5635H13.8551C13.6137 36.5635 13.3821 36.6511 13.2114 36.8069C13.0407 36.9628 12.9448 37.1743 12.9448 37.3947C12.9448 37.6152 13.0407 37.8266 13.2114 37.9825C13.3821 38.1384 13.6137 38.2259 13.8551 38.2259Z" fill="#3902A9"/>
<path d="M5.66176 34.902H10.2136C10.4551 34.902 10.6866 34.8144 10.8574 34.6585C11.0281 34.5026 11.124 34.2912 11.124 34.0707C11.124 33.8503 11.0281 33.6389 10.8574 33.483C10.6866 33.3271 10.4551 33.2395 10.2136 33.2395H5.66176C5.42032 33.2395 5.18876 33.3271 5.01803 33.483C4.8473 33.6389 4.75139 33.8503 4.75139 34.0707C4.75139 34.2912 4.8473 34.5026 5.01803 34.6585C5.18876 34.8144 5.42032 34.902 5.66176 34.902Z" fill="#3902A9"/>
<path d="M5.66176 38.2259H10.2136C10.4551 38.2259 10.6866 38.1384 10.8574 37.9825C11.0281 37.8266 11.124 37.6152 11.124 37.3947C11.124 37.1743 11.0281 36.9628 10.8574 36.8069C10.6866 36.6511 10.4551 36.5635 10.2136 36.5635H5.66176C5.42032 36.5635 5.18876 36.6511 5.01803 36.8069C4.8473 36.9628 4.75139 37.1743 4.75139 37.3947C4.75139 37.6152 4.8473 37.8266 5.01803 37.9825C5.18876 38.1384 5.42032 38.2259 5.66176 38.2259Z" fill="#3902A9"/>
<path d="M26.6004 40.7183H5.66176C5.42032 40.7183 5.18876 40.8058 5.01803 40.9617C4.8473 41.1175 4.75139 41.3289 4.75139 41.5492V44.8732C4.75139 45.0936 4.8473 45.3049 5.01803 45.4608C5.18876 45.6166 5.42032 45.7042 5.66176 45.7042H26.6004C26.8418 45.7042 27.0734 45.6166 27.2441 45.4608C27.4149 45.3049 27.5108 45.0936 27.5108 44.8732V41.5492C27.5108 41.3289 27.4149 41.1175 27.2441 40.9617C27.0734 40.8058 26.8418 40.7183 26.6004 40.7183ZM25.69 44.0422H6.57214V42.3802H25.69V44.0422Z" fill="#3902A9"/>
<path d="M37.7889 22.1956C37.9603 22.352 38.1928 22.4399 38.4353 22.4399C38.6777 22.4399 38.9102 22.352 39.0816 22.1956C39.2531 22.0391 39.3494 21.8269 39.3494 21.6056C39.3494 21.3843 39.2531 21.172 39.0816 21.0156L36.0774 18.2816L39.0816 15.5477C39.2531 15.3912 39.3494 15.179 39.3494 14.9577C39.3494 14.7364 39.2531 14.5242 39.0816 14.3677C38.9102 14.2112 38.6777 14.1233 38.4353 14.1233C38.1928 14.1233 37.9603 14.2112 37.7889 14.3677L34.1474 17.6916C34.0621 17.7689 33.9943 17.8608 33.9481 17.962C33.9019 18.0633 33.8781 18.1719 33.8781 18.2816C33.8781 18.3913 33.9019 18.4999 33.9481 18.6012C33.9943 18.7025 34.0621 18.7944 34.1474 18.8716L37.7889 22.1956Z" fill="#3902A9"/>
<path d="M50.9165 14.3677C50.7451 14.2112 50.5126 14.1233 50.2701 14.1233C50.0277 14.1233 49.7952 14.2112 49.6238 14.3677C49.4524 14.5242 49.356 14.7364 49.356 14.9577C49.356 15.179 49.4524 15.3912 49.6238 15.5477L52.628 18.2816L49.6238 21.0156C49.4954 21.1318 49.4078 21.2803 49.3723 21.4421C49.3367 21.604 49.3547 21.7718 49.4241 21.9242C49.4934 22.0767 49.6109 22.2068 49.7616 22.2981C49.9123 22.3893 50.0893 22.4375 50.2701 22.4366C50.78 22.4366 50.5433 22.5363 54.558 18.8716C54.6433 18.7944 54.7111 18.7025 54.7573 18.6012C54.8035 18.4999 54.8273 18.3913 54.8273 18.2816C54.8273 18.1719 54.8035 18.0633 54.7573 17.962C54.7111 17.8608 54.6433 17.7689 54.558 17.6916L50.9165 14.3677Z" fill="#3902A9"/>
<path d="M42.8506 22.046L47.4025 15.3981C47.5304 15.2107 47.5716 14.9847 47.517 14.7696C47.4624 14.5546 47.3164 14.3681 47.1111 14.2513C46.9059 14.1345 46.6583 14.0969 46.4226 14.1468C46.187 14.1966 45.9828 14.3299 45.8548 14.5172L41.3029 21.1651C41.175 21.3524 41.1338 21.5785 41.1884 21.7936C41.243 22.0086 41.389 22.1951 41.5943 22.3119C41.7995 22.4287 42.0472 22.4663 42.2828 22.4164C42.5184 22.3665 42.7226 22.2333 42.8506 22.046Z" fill="#3902A9"/>
<path d="M53.9116 25.7605H34.7938C34.5523 25.7605 34.3208 25.8481 34.15 26.004C33.9793 26.1598 33.8834 26.3713 33.8834 26.5917C33.8834 26.8122 33.9793 27.0236 34.15 27.1795C34.3208 27.3354 34.5523 27.423 34.7938 27.423H53.9116C54.1531 27.423 54.3847 27.3354 54.5554 27.1795C54.7261 27.0236 54.822 26.8122 54.822 26.5917C54.822 26.3713 54.7261 26.1598 54.5554 26.004C54.3847 25.8481 54.1531 25.7605 53.9116 25.7605Z" fill="#3902A9"/>
<path d="M34.7938 31.578H47.539C47.7805 31.578 48.012 31.4904 48.1828 31.3345C48.3535 31.1786 48.4494 30.9672 48.4494 30.7468C48.4494 30.5263 48.3535 30.3149 48.1828 30.159C48.012 30.0031 47.7805 29.9155 47.539 29.9155H34.7938C34.5523 29.9155 34.3208 30.0031 34.15 30.159C33.9793 30.3149 33.8834 30.5263 33.8834 30.7468C33.8834 30.9672 33.9793 31.1786 34.15 31.3345C34.3208 31.4904 34.5523 31.578 34.7938 31.578Z" fill="#3902A9"/>
<path d="M34.7938 35.7328H51.1805C51.422 35.7328 51.6535 35.6452 51.8243 35.4893C51.995 35.3334 52.0909 35.122 52.0909 34.9015C52.0909 34.6811 51.995 34.4697 51.8243 34.3138C51.6535 34.1579 51.422 34.0703 51.1805 34.0703H34.7938C34.5523 34.0703 34.3208 34.1579 34.15 34.3138C33.9793 34.4697 33.8834 34.6811 33.8834 34.9015C33.8834 35.122 33.9793 35.3334 34.15 35.4893C34.3208 35.6452 34.5523 35.7328 34.7938 35.7328Z" fill="#3902A9"/>
<path d="M53.9116 38.2253H34.7938C34.5523 38.2253 34.3208 38.3129 34.15 38.4688C33.9793 38.6247 33.8834 38.8361 33.8834 39.0566C33.8834 39.277 33.9793 39.4885 34.15 39.6443C34.3208 39.8002 34.5523 39.8878 34.7938 39.8878H53.9116C54.1531 39.8878 54.3847 39.8002 54.5554 39.6443C54.7261 39.4885 54.822 39.277 54.822 39.0566C54.822 38.8361 54.7261 38.6247 54.5554 38.4688C54.3847 38.3129 54.1531 38.2253 53.9116 38.2253Z" fill="#3902A9"/>
<path d="M49.3598 42.3804H34.7938C34.5523 42.3804 34.3208 42.4679 34.15 42.6238C33.9793 42.7797 33.8834 42.9911 33.8834 43.2116C33.8834 43.4321 33.9793 43.6435 34.15 43.7994C34.3208 43.9553 34.5523 44.0428 34.7938 44.0428H49.3598C49.6012 44.0428 49.8328 43.9553 50.0035 43.7994C50.1742 43.6435 50.2701 43.4321 50.2701 43.2116C50.2701 42.9911 50.1742 42.7797 50.0035 42.6238C49.8328 42.4679 49.6012 42.3804 49.3598 42.3804Z" fill="#3902A9"/>
</g>
<defs>
<clipPath id="clip0_20_329">
<rect width="58.264" height="53.1831" fill="white" transform="translate(0.199509)"/>
</clipPath>
</defs>
</svg>
