<svg width="59" height="54" viewBox="0 0 59 54" fill="none" xmlns="http://www.w3.org/2000/svg">
<g clip-path="url(#clip0_20_354)">
<path d="M30.5791 24.9295V23.2675C30.5791 23.0471 30.4831 22.8358 30.3124 22.6799C30.1417 22.5241 29.9101 22.4365 29.6687 22.4365C29.4272 22.4365 29.1957 22.5241 29.0249 22.6799C28.8542 22.8358 28.7583 23.0471 28.7583 23.2675V24.9295C28.7583 25.1499 28.8542 25.3612 29.0249 25.5171C29.1957 25.6729 29.4272 25.7605 29.6687 25.7605C29.9101 25.7605 30.1417 25.6729 30.3124 25.5171C30.4831 25.3612 30.5791 25.1499 30.5791 24.9295Z" fill="#3902A9"/>
<path d="M35.1309 24.9295V23.2675C35.1309 23.0471 35.035 22.8358 34.8643 22.6799C34.6936 22.5241 34.462 22.4365 34.2206 22.4365C33.9791 22.4365 33.7476 22.5241 33.5768 22.6799C33.4061 22.8358 33.3102 23.0471 33.3102 23.2675V24.9295C33.3102 25.1499 33.4061 25.3612 33.5768 25.5171C33.7476 25.6729 33.9791 25.7605 34.2206 25.7605C34.462 25.7605 34.6936 25.6729 34.8643 25.5171C35.035 25.3612 35.1309 25.1499 35.1309 24.9295Z" fill="#3902A9"/>
<path d="M26.0272 24.9295V23.2675C26.0272 23.0471 25.9313 22.8358 25.7606 22.6799C25.5898 22.5241 25.3583 22.4365 25.1168 22.4365C24.8754 22.4365 24.6438 22.5241 24.4731 22.6799C24.3024 22.8358 24.2065 23.0471 24.2065 23.2675V24.9295C24.2065 25.1499 24.3024 25.3612 24.4731 25.5171C24.6438 25.6729 24.8754 25.7605 25.1168 25.7605C25.3583 25.7605 25.5898 25.6729 25.7606 25.5171C25.9313 25.3612 26.0272 25.1499 26.0272 24.9295Z" fill="#3902A9"/>
<path d="M30.5791 30.7464V29.0844C30.5791 28.864 30.4831 28.6526 30.3124 28.4968C30.1417 28.341 29.9101 28.2534 29.6687 28.2534C29.4272 28.2534 29.1957 28.341 29.0249 28.4968C28.8542 28.6526 28.7583 28.864 28.7583 29.0844V30.7464C28.7583 30.9668 28.8542 31.1781 29.0249 31.334C29.1957 31.4898 29.4272 31.5774 29.6687 31.5774C29.9101 31.5774 30.1417 31.4898 30.3124 31.334C30.4831 31.1781 30.5791 30.9668 30.5791 30.7464Z" fill="#3902A9"/>
<path d="M35.1309 30.7464V29.0844C35.1309 28.864 35.035 28.6526 34.8643 28.4968C34.6936 28.341 34.462 28.2534 34.2206 28.2534C33.9791 28.2534 33.7476 28.341 33.5768 28.4968C33.4061 28.6526 33.3102 28.864 33.3102 29.0844V30.7464C33.3102 30.9668 33.4061 31.1781 33.5768 31.334C33.7476 31.4898 33.9791 31.5774 34.2206 31.5774C34.462 31.5774 34.6936 31.4898 34.8643 31.334C35.035 31.1781 35.1309 30.9668 35.1309 30.7464Z" fill="#3902A9"/>
<path d="M26.0272 30.7464V29.0844C26.0272 28.864 25.9313 28.6526 25.7606 28.4968C25.5898 28.341 25.3583 28.2534 25.1168 28.2534C24.8754 28.2534 24.6438 28.341 24.4731 28.4968C24.3024 28.6526 24.2065 28.864 24.2065 29.0844V30.7464C24.2065 30.9668 24.3024 31.1781 24.4731 31.334C24.6438 31.4898 24.8754 31.5774 25.1168 31.5774C25.3583 31.5774 25.5898 31.4898 25.7606 31.334C25.9313 31.1781 26.0272 30.9668 26.0272 30.7464Z" fill="#3902A9"/>
<path d="M24.4704 43.4522L21.7393 45.9451C21.654 46.0224 21.5863 46.1143 21.54 46.2155C21.4938 46.3168 21.47 46.4254 21.47 46.5351C21.47 46.6448 21.4938 46.7534 21.54 46.8547C21.5863 46.9559 21.654 47.0479 21.7393 47.1251L24.4704 49.6181C24.6419 49.7745 24.8744 49.8625 25.1168 49.8625C25.3592 49.8625 25.5917 49.7745 25.7632 49.6181C25.9346 49.4616 26.0309 49.2494 26.0309 49.0281C26.0309 48.8068 25.9346 48.5945 25.7632 48.4381L23.6693 46.5351L25.7632 44.6322C25.9346 44.4757 26.0309 44.2634 26.0309 44.0422C26.0309 43.8209 25.9346 43.6086 25.7632 43.4522C25.5917 43.2957 25.3592 43.2078 25.1168 43.2078C24.8744 43.2078 24.6419 43.2957 24.4704 43.4522Z" fill="#3902A9"/>
<path d="M34.8669 43.4522C34.7821 43.3747 34.6813 43.3132 34.5704 43.2713C34.4595 43.2293 34.3406 43.2078 34.2206 43.2078C34.1005 43.2078 33.9817 43.2293 33.8708 43.2713C33.7599 43.3132 33.6591 43.3747 33.5742 43.4522C33.4893 43.5296 33.422 43.6216 33.3761 43.7228C33.3301 43.8241 33.3065 43.9326 33.3065 44.0422C33.3065 44.1517 33.3301 44.2602 33.3761 44.3615C33.422 44.4627 33.4893 44.5547 33.5742 44.6322L35.6681 46.5351L33.5742 48.4381C33.4458 48.5543 33.3583 48.7028 33.3227 48.8646C33.2871 49.0265 33.3052 49.1943 33.3745 49.3467C33.4438 49.4992 33.5613 49.6293 33.712 49.7206C33.8627 49.8118 34.0397 49.86 34.2206 49.8591C34.7213 49.8591 34.612 49.8591 37.5981 47.1251C37.6834 47.0479 37.7511 46.9559 37.7973 46.8547C37.8436 46.7534 37.8673 46.6448 37.8673 46.5351C37.8673 46.4254 37.8436 46.3168 37.7973 46.2155C37.7511 46.1143 37.6834 46.0224 37.5981 45.9451L34.8669 43.4522Z" fill="#3902A9"/>
<path d="M29.7142 43.7763L27.8935 48.7622C27.8471 48.8874 27.8342 49.0208 27.8557 49.1515C27.8772 49.2822 27.9325 49.4063 28.0171 49.5135C28.1016 49.6208 28.213 49.7081 28.3419 49.7682C28.4708 49.8283 28.6136 49.8594 28.7583 49.8591C29.6687 49.8591 29.5139 49.5932 31.4894 44.3081C31.5667 44.0932 31.5473 43.8591 31.4355 43.6573C31.3236 43.4555 31.1286 43.3025 30.8931 43.232C30.6577 43.1615 30.4013 43.1792 30.1802 43.2812C29.9591 43.3833 29.7915 43.5614 29.7142 43.7763Z" fill="#3902A9"/>
<path d="M12.3716 32.409H16.9234C17.1649 32.409 17.3964 32.3215 17.5672 32.1656C17.7379 32.0097 17.8338 31.7983 17.8338 31.5778C17.8338 31.3574 17.7379 31.1459 17.5672 30.99C17.3964 30.8342 17.1649 30.7466 16.9234 30.7466H12.3716C12.1301 30.7466 11.8986 30.8342 11.7278 30.99C11.5571 31.1459 11.4612 31.3574 11.4612 31.5778C11.4612 31.7983 11.5571 32.0097 11.7278 32.1656C11.8986 32.3215 12.1301 32.409 12.3716 32.409Z" fill="#3902A9"/>
<path d="M12.3716 36.5638H16.9234C17.1649 36.5638 17.3964 36.4763 17.5672 36.3204C17.7379 36.1645 17.8338 35.9531 17.8338 35.7326C17.8338 35.5121 17.7379 35.3007 17.5672 35.1448C17.3964 34.9889 17.1649 34.9014 16.9234 34.9014H12.3716C12.1301 34.9014 11.8986 34.9889 11.7278 35.1448C11.5571 35.3007 11.4612 35.5121 11.4612 35.7326C11.4612 35.9531 11.5571 36.1645 11.7278 36.3204C11.8986 36.4763 12.1301 36.5638 12.3716 36.5638Z" fill="#3902A9"/>
<path d="M46.9658 30.7466H42.4139C42.1725 30.7466 41.9409 30.8342 41.7702 30.99C41.5995 31.1459 41.5036 31.3574 41.5036 31.5778C41.5036 31.7983 41.5995 32.0097 41.7702 32.1656C41.9409 32.3215 42.1725 32.409 42.4139 32.409H46.9658C47.2073 32.409 47.4388 32.3215 47.6096 32.1656C47.7803 32.0097 47.8762 31.7983 47.8762 31.5778C47.8762 31.3574 47.7803 31.1459 47.6096 30.99C47.4388 30.8342 47.2073 30.7466 46.9658 30.7466Z" fill="#3902A9"/>
<path d="M46.9658 34.9014H42.4139C42.1725 34.9014 41.9409 34.9889 41.7702 35.1448C41.5995 35.3007 41.5036 35.5121 41.5036 35.7326C41.5036 35.9531 41.5995 36.1645 41.7702 36.3204C41.9409 36.4763 42.1725 36.5638 42.4139 36.5638H46.9658C47.2073 36.5638 47.4388 36.4763 47.6096 36.3204C47.7803 36.1645 47.8762 35.9531 47.8762 35.7326C47.8762 35.5121 47.7803 35.3007 47.6096 35.1448C47.4388 34.9889 47.2073 34.9014 46.9658 34.9014Z" fill="#3902A9"/>
<path d="M57.8903 0H1.44706C1.20561 0 0.974053 0.0875501 0.803325 0.24339C0.632596 0.39923 0.536682 0.610595 0.536682 0.830986L0.536682 43.2113C0.536682 43.4317 0.632596 43.643 0.803325 43.7989C0.974053 43.9547 1.20561 44.0423 1.44706 44.0423H7.81968V51.5211H1.44706C1.20561 51.5211 0.974053 51.6087 0.803325 51.7645C0.632596 51.9204 0.536682 52.1317 0.536682 52.3521C0.536682 52.5725 0.632596 52.7839 0.803325 52.9397C0.974053 53.0955 1.20561 53.1831 1.44706 53.1831H57.8903C58.1318 53.1831 58.3633 53.0955 58.5341 52.9397C58.7048 52.7839 58.8007 52.5725 58.8007 52.3521C58.8007 52.1317 58.7048 51.9204 58.5341 51.7645C58.3633 51.6087 58.1318 51.5211 57.8903 51.5211H51.5177V44.0423H57.8903C58.1318 44.0423 58.3633 43.9547 58.5341 43.7989C58.7048 43.643 58.8007 43.4317 58.8007 43.2113V0.830986C58.8007 0.610595 58.7048 0.39923 58.5341 0.24339C58.3633 0.0875501 58.1318 0 57.8903 0V0ZM2.35743 1.66197H56.9799V6.64789H2.35743V1.66197ZM9.64043 28.2535H19.6546V36.7545C19.4179 36.8459 19.5271 36.7545 17.0145 39.073C16.7687 39.073 17.9248 39.073 12.3716 39.073C12.1301 39.073 11.8986 39.1605 11.7278 39.3163C11.5571 39.4722 11.4612 39.6835 11.4612 39.9039C11.4612 40.1243 11.5571 40.3357 11.7278 40.4915C11.8986 40.6474 12.1301 40.7349 12.3716 40.7349H15.3121C14.9843 41.4496 15.6307 41.7653 17.3786 43.3525C17.0509 43.178 17.324 43.2279 12.3716 43.2279C12.1301 43.2279 11.8986 43.3154 11.7278 43.4713C11.5571 43.6271 11.4612 43.8385 11.4612 44.0589C11.4612 44.2793 11.5571 44.4906 11.7278 44.6465C11.8986 44.8023 12.1301 44.8899 12.3716 44.8899C17.415 44.8899 16.9234 44.8899 17.2057 44.84C16.9263 45.3875 16.695 45.9543 16.5138 46.5352H13.2819C13.0405 46.5352 12.8089 46.6228 12.6382 46.7786C12.4675 46.9344 12.3716 47.1458 12.3716 47.3662V51.5211H9.64043V28.2535ZM36.0413 18.2817H23.2961V16.6197H36.0413V18.2817ZM37.8621 19.9437V37.6852L36.3964 39.0563C35.4251 38.5418 34.3887 38.1372 33.3102 37.8514V34.9014C33.3102 34.681 33.2143 34.4697 33.0435 34.3138C32.8728 34.158 32.6413 34.0704 32.3998 34.0704H26.9376C26.6961 34.0704 26.4646 34.158 26.2938 34.3138C26.1231 34.4697 26.0272 34.681 26.0272 34.9014V37.8514C24.9487 38.1372 23.9123 38.5418 22.941 39.0563L21.4753 37.6852V19.9437H37.8621ZM17.7701 43.768C17.7246 43.6434 17.6153 43.552 17.7701 43.7182V43.768ZM14.1923 51.5211V48.1972C20.1917 48.1972 16.5138 48.5794 19.7092 44.0423C19.8226 43.8829 19.8726 43.6928 19.8511 43.5038C19.8296 43.3148 19.7377 43.1382 19.5908 43.0035L17.4332 41.0424L20.0096 38.6907C24.2884 42.6046 21.4207 40.4607 27.1287 39.3139C27.3358 39.2734 27.5209 39.1682 27.6521 39.0166C27.7834 38.8649 27.8526 38.6762 27.8479 38.483V35.7324H31.4894C31.4894 41.2086 31.0707 37.8514 36.0413 40.7682C36.2159 40.8716 36.4241 40.9174 36.6312 40.8977C36.8383 40.8781 37.0317 40.7942 37.1793 40.6601L39.3278 38.6907L41.9041 41.0424L39.7465 43.0035C38.8362 43.8345 40.4475 44.3082 41.2214 47.5407C41.2658 47.7297 41.381 47.8986 41.5471 48.0185C41.7133 48.1383 41.92 48.2015 42.1317 48.1972H45.1451V51.5211H14.1923ZM41.5036 43.7182C41.6856 43.552 41.5764 43.6434 41.5036 43.768V43.7182ZM46.9658 51.5211V47.3662C46.9658 47.1458 46.8699 46.9344 46.6992 46.7786C46.5285 46.6228 46.2969 46.5352 46.0554 46.5352H42.8236C42.6433 45.9487 42.412 45.3762 42.1317 44.8234C42.4139 44.8732 41.9223 44.8732 46.9658 44.8732C47.2073 44.8732 47.4388 44.7857 47.6096 44.6298C47.7803 44.474 47.8762 44.2626 47.8762 44.0423C47.8762 43.8219 47.7803 43.6105 47.6096 43.4547C47.4388 43.2988 47.2073 43.2113 46.9658 43.2113C42.0407 43.2113 42.2865 43.1614 41.9588 43.3359C43.7795 41.6739 44.3439 41.3997 44.0253 40.7183H46.9658C47.2073 40.7183 47.4388 40.6308 47.6096 40.4749C47.7803 40.3191 47.8762 40.1077 47.8762 39.8873C47.8762 39.6669 47.7803 39.4556 47.6096 39.2997C47.4388 39.1439 47.2073 39.0563 46.9658 39.0563C41.1576 39.0563 42.5596 39.0563 42.3229 39.0563C39.8012 36.7545 39.9286 36.8293 39.6828 36.7462V28.2535H49.6969V51.5211H46.9658ZM51.5177 42.3803V27.4225C51.5177 27.2021 51.4218 26.9908 51.2511 26.8349C51.0803 26.6791 50.8488 26.5915 50.6073 26.5915H39.6828V19.1127C39.6828 18.8923 39.5869 18.6809 39.4162 18.5251C39.2454 18.3692 39.0139 18.2817 38.7724 18.2817H37.8621V15.7887C37.8621 15.5683 37.7662 15.357 37.5954 15.2011C37.4247 15.0453 37.1931 14.9577 36.9517 14.9577H22.3857C22.1442 14.9577 21.9127 15.0453 21.742 15.2011C21.5712 15.357 21.4753 15.5683 21.4753 15.7887V18.2817H20.5649C20.3235 18.2817 20.0919 18.3692 19.9212 18.5251C19.7505 18.6809 19.6546 18.8923 19.6546 19.1127V26.5915H8.73006C8.48861 26.5915 8.25706 26.6791 8.08633 26.8349C7.9156 26.9908 7.81968 27.2021 7.81968 27.4225V42.3803H2.35743V8.30986H56.9799V42.3803H51.5177Z" fill="#3902A9"/>
<path d="M5.99894 3.32397C5.75749 3.32397 5.52593 3.41155 5.3552 3.56744C5.18448 3.72332 5.08856 3.93475 5.08856 4.15521C5.08856 4.37566 5.18448 4.58709 5.3552 4.74298C5.52593 4.89886 5.75749 4.98644 5.99894 4.98644C6.24038 4.98644 6.47194 4.89886 6.64267 4.74298C6.8134 4.58709 6.90931 4.37566 6.90931 4.15521C6.90931 3.93475 6.8134 3.72332 6.64267 3.56744C6.47194 3.41155 6.24038 3.32397 5.99894 3.32397Z" fill="#3902A9"/>
<path d="M10.5508 3.32397C10.3094 3.32397 10.0778 3.41155 9.90708 3.56744C9.73636 3.72332 9.64044 3.93475 9.64044 4.15521C9.64044 4.37566 9.73636 4.58709 9.90708 4.74298C10.0778 4.89886 10.3094 4.98644 10.5508 4.98644C10.7923 4.98644 11.0238 4.89886 11.1945 4.74298C11.3653 4.58709 11.4612 4.37566 11.4612 4.15521C11.4612 3.93475 11.3653 3.72332 11.1945 3.56744C11.0238 3.41155 10.7923 3.32397 10.5508 3.32397Z" fill="#3902A9"/>
<path d="M15.1027 3.32397C14.8613 3.32397 14.6297 3.41155 14.459 3.56744C14.2882 3.72332 14.1923 3.93475 14.1923 4.15521C14.1923 4.37566 14.2882 4.58709 14.459 4.74298C14.6297 4.89886 14.8613 4.98644 15.1027 4.98644C15.3441 4.98644 15.5757 4.89886 15.7464 4.74298C15.9172 4.58709 16.0131 4.37566 16.0131 4.15521C16.0131 3.93475 15.9172 3.72332 15.7464 3.56744C15.5757 3.41155 15.3441 3.32397 15.1027 3.32397Z" fill="#3902A9"/>
</g>
<defs>
<clipPath id="clip0_20_354">
<rect width="58.264" height="53.1831" fill="white" transform="translate(0.536682)"/>
</clipPath>
</defs>
</svg>
